<?xml version="1.0" encoding="utf-8"?>
<!-- Generator: Adobe Illustrator 23.0.3, SVG Export Plug-In . SVG Version: 6.00 Build 0)  -->
<svg version="1.1" id="svg2811" xmlns:svg="http://www.w3.org/2000/svg"
	 xmlns="http://www.w3.org/2000/svg" xmlns:xlink="http://www.w3.org/1999/xlink" x="0px" y="0px" viewBox="0 0 708.7 467.5"
	 style="enable-background:new 0 0 708.7 467.5;" xml:space="preserve">
<style type="text/css">
	.st0{fill:#CC071E;}
</style>
<path id="path45125" class="st0" d="M498,14.2c25.7-12.6,38.5-11,38.8,1.8c0.3,16.6-2.1,38.8-3.9,54.8
	c-9.6,87.1-25.5,158.2-26.7,247.6c42-108.8,77.3-184.5,122.7-277.7c14.4-29.7,23.6-24.1,35.5-29.4c46.1-20.5,47.8-8,41.8,17.2
	c-22.4,93-79.6,385.9-88.4,431c-2.5,13-16.7,7.5-20.4,2.4c-16.4-22.7-34.9-23.1-32.9-38.2c10.3-75.2,47.4-263.8,57-308.3
	c-49.3,101-100.3,227.2-126.6,298.8c-5.5,15.2-15.7,14.1-22,3c-8.9-15.6-26.1-23.6-28.9-42.1c-9-58.7,10.3-170.6,13-241.3
	c-26.8,77.3-71.8,227.4-91.6,295.2c-8.1,28.1-35.2,23.5-28-3.9c30-113.8,94.6-315.1,122.5-387.4C466.5,20.6,483.7,21.2,498,14.2"/>
<path id="path45127" class="st0" d="M334.5,0.2c-8.7-2.1-33.9,11.5-49.4,14.2c-4.9,0.9-9.6,6.1-11.3,9.8
	c-24.8,57-47.1,111.4-66.4,160.9c-24.7,4.2-53.5,9.8-85.7,17c23.1-59.3,46.4-117.7,69.2-174c11.2-27.7-18.3-30.3-29.7-2.3
	c-14.9,36.4-42.7,104.7-73.6,184.3C65,215.7,41,222,15.9,229.3c-18.2,5.3-19,10.1-11.1,21.1c4.3,6.1,13.3,5.5,17.4,9.8
	c10.6,11.3,17.1,24.7,36.2,26.7c-17,45.4-34,92.3-49.4,137.4c-9.7,28.3,17.8,34.1,28.4,4.1c17-48.3,35-97.2,53.5-146
	c15.4-3.6,52.6-11.6,87-19.1c-27.3,74.8-45.2,131.6-52.1,159.2c-1.3,5.3,0.9,8.3,2,10.4c9.2,13.4,18,14,29.8,30.5
	c3.2,4.5,14,7,17.6-4.2c25.3-76.4,51.3-148,75.6-212.3c10.1-2.2,28.2-6.6,39.3-23.1c19.7-29.4,25.4-23.4,30.1-32.4
	c5.9-11.2,2-21.7-19-19.1c0,0-8,0.6-22.7,2.2c23.3-60.1,43.8-111.1,58.5-149.9C342.1,11.8,342.7,2.2,334.5,0.2"/>
<path id="path45129" class="st0" d="M300.1,390c5.4,13.7,22.4,9.6,16-7c-6.6-16.9-22.9-67.7-27.2-84.1c-5.8-22.1,19.4-16,6.6-1.6
	c-11,12.4-18.3,17.4-38.6,41c-19.6,22.8-14.3,52.3,6.7,58.8c23.7,7.4,44.6-18.7,57.5-37.9c12.5-18.5,0.4-29.4-12.2-18.5
	c-8.1,7-17.5,17.9-27,23.7c-7.7,4.7-13.8-0.3-3.5-14.5c12-16.4,25.3-30.2,35.3-45.7c20.3-31.6-19.8-49.8-37.1-29.3
	c-9.3,10.9-6.9,21.7-4.4,30.9C276.1,320.6,291.2,367.8,300.1,390"/>
</svg>
